# xmcd
#
# Track frame offsets: 
#        150
#        15748
#        34246
#        50262
#        68164
#        80502
#        97060
#        113146
#        127872
#        145645
#        161027
#        175861
#        189491
#        201533
#        220327
#        237207
#        252389
#        273663
#        291485
#        307083
#
# Disc length: 4333 seconds
#
# Revision: 5
# Processed by: cddbd v1.5.2PL0 Copyright (c) Steve Scherf et al.
# Submitted via: ExactAudioCopyFreeDBPlugin 1.0
#
DISCID=3110eb14
DTITLE=Smokie and Chris Norman - 1995 - The Best Of 20 Years
DYEAR=1995
DGENRE=Oldies
TTITLE0=Living Next Door To Alice
TTITLE1=Lay Back In The Arms Of Someone
TTITLE2=It's Your Life
TTITLE3=Mexican Girl
TTITLE4=Needles And Pins
TTITLE5=Oh Carol
TTITLE6=For A Few Dollars More
TTITLE7=I'll Meet You At Midnight
TTITLE8=Wild Wild Angels
TTITLE9=If You Think You Know How To Love Me
TTITLE10=Don't Play Your Rock 'N' Roll To Me
TTITLE11=Something's Been Making Me Blue
TTITLE12=Roll On Baby
TTITLE13=Midnight Lady
TTITLE14=Some Hearts Are Diamonds
TTITLE15=Broken Heroes
TTITLE16=Sarah (You Take My Breath Away)
TTITLE17=Stumbli' In
TTITLE18=I Want To Be Needed
TTITLE19=Alice (Who The X Is Alice) (Living Next Door To Alice)
EXTD=YEAR: 1995
EXTT0=
EXTT1=
EXTT2=
EXTT3=
EXTT4=
EXTT5=
EXTT6=
EXTT7=
EXTT8=
EXTT9=
EXTT10=
EXTT11=
EXTT12=
EXTT13=
EXTT14=
EXTT15=
EXTT16=
EXTT17=
EXTT18=
EXTT19=
PLAYORDER=
